<svg xmlns="http://www.w3.org/2000/svg" width="252" height="64" fill="none" viewBox="0 0 126 32"><g clip-path="url(#a)"><path fill="#181E9B" d="M66.041 10.127c-6.03 0-10.917 4.895-10.917 10.933s4.888 10.933 10.917 10.933c4.713 0 8.729-2.992 10.257-7.181h-4.56a6.806 6.806 0 0 1-5.697 3.078c-3.441 0-6.285-2.555-6.75-5.87h17.623c.028-.315.044-.634.044-.958 0-6.04-4.888-10.935-10.917-10.935Zm-6.448 8.712a6.821 6.821 0 0 1 6.448-4.609 6.823 6.823 0 0 1 6.448 4.609H59.593ZM100.568.021a4.105 4.105 0 0 0-4.102 4.108v8.397a10.879 10.879 0 0 0-7.573-2.396c-5.65.365-10.124 5.097-10.203 10.765-.084 6.115 4.839 11.096 10.926 11.096 5.985 0 10.843-4.818 10.924-10.791h.028V.02ZM89.616 27.883c-3.769 0-6.824-3.06-6.824-6.834 0-3.775 3.055-6.835 6.824-6.835 3.77 0 6.825 3.06 6.825 6.835 0 3.774-3.056 6.834-6.825 6.834Z"/><path fill="#30D0C8" d="M8.336 17.64a.569.569 0 0 0-.76.535v2.836c0 .394.39.669.76.536l2.51-1.1a.577.577 0 0 1 .387 0l2.511 1.1c.37.133.76-.142.76-.536v-2.836a.569.569 0 0 0-.76-.536l-2.511 1.1a.578.578 0 0 1-.386 0l-2.511-1.1Z"/><path fill="#181E9B" d="M25.608 31.988h4.104V4.11c0-2.27-1.837-4.11-4.104-4.11v31.988ZM34.507 6.108v5.02H32.8v3.775h1.707v17.083h4.104v-17.08h3.792v-3.777h-3.792V5.687c0-1.358 1.327-1.903 1.906-1.903h1.886V.009h-1.886c-3.016 0-6.01 2.338-6.01 6.099ZM49.265 12.577v-1.448H45.15V31.99h4.116V19.2c0-3.168 3.355-4.61 5.215-4.603v-4.082c.003 0-2.794-.258-5.215 2.06ZM10.929 10.116C4.895 10.113 0 15.013 0 21.056-.002 27.097 4.89 32 10.924 32l10.915-.016.014-10.924c.002-6.043-4.89-10.944-10.924-10.944Zm6.815 10.737-.003 7.035-7.01-.003v.003a6.826 6.826 0 0 1-6.63-6.83c0-3.775 3.058-6.835 6.828-6.832 3.699-.003 6.708 2.948 6.815 6.627Z"/><path fill="#30D0C8" d="M115.045 21.884h-10.91a.016.016 0 0 1-.016-.016V10.942C104.119 4.9 109.011 0 115.047 0h10.91c.01 0 .016.007.016.016v10.926c0 6.043-4.892 10.942-10.928 10.942Z"/><path fill="#fff" d="M108.341 15.446v-1.18c0-.464.093-.881.277-1.251a4.15 4.15 0 0 1 .721-1.016c.295-.305.609-.586.937-.84.328-.254.642-.496.937-.722.295-.226.537-.45.721-.668.186-.217.277-.443.277-.676 0-.22-.089-.43-.263-.626-.177-.196-.467-.291-.874-.291-.268 0-.503.053-.7.16-.2.108-.365.236-.5.39a3.621 3.621 0 0 0-.326.423l-1.458-1.015c.168-.277.391-.547.675-.806a3.4 3.4 0 0 1 1.055-.64c.421-.168.914-.25 1.479-.25.665 0 1.216.122 1.651.362.435.242.76.551.979.931.216.38.326.778.326 1.195 0 .416-.087.791-.256 1.127-.172.333-.393.64-.668.917a8.423 8.423 0 0 1-.867.77c-.305.236-.597.46-.874.667a4.18 4.18 0 0 0-.675.62c-.172.204-.26.416-.269.64h3.65v1.779h-5.955ZM115.352 13.848v-1.543l3.776-5.617h1.986v5.589h.888v1.571h-.888v1.6h-1.86v-1.6h-3.902Zm1.79-1.572h2.109V9.038l-2.109 3.24Z"/></g><defs><clipPath id="a"><path fill="#fff" d="M0 0h125.974v32H0z"/></clipPath></defs></svg>